<svg width="155" height="74" viewBox="0 0 155 74" fill="none" xmlns="http://www.w3.org/2000/svg">
<path d="M14.4294 51.2821C-5.38854 47.9688 1.17531 44.2256 15.5067 44.2256L17.015 34.7991H26.9802L25.8101 43.2022H47.9218L33.7137 51.2821H24.3946L21.055 72.3976H11.0897L14.4294 51.2821Z" fill="#0A0A0A"/>
<path d="M43.2354 73.421C39.788 73.421 36.8792 72.7746 34.5091 71.4818C32.1749 70.1891 30.5049 68.4115 29.4994 66.1491C28.4939 63.8508 28.2425 61.2293 28.7452 58.2847C29.2121 55.5555 30.3254 53.0417 32.085 50.7434C33.8447 48.4451 36.0892 46.6137 38.8184 45.2491C41.5835 43.8845 44.618 43.2022 47.9218 43.2022C51.2615 43.2022 54.0626 43.9024 56.3249 45.303C58.6232 46.7035 60.2392 48.5708 61.1729 50.905C62.1066 53.2033 62.34 55.6811 61.8731 58.3385C61.5499 59.5954 61.2986 60.4573 61.119 60.9241H37.6872C37.6154 62.5042 38.2079 63.797 39.4648 64.8025C40.7575 65.772 42.4813 66.2568 44.636 66.2568C46.1442 66.2568 47.5986 65.9875 48.9991 65.4488C50.3996 64.8743 51.5129 64.174 52.3388 63.3481L58.6412 67.4419C56.7379 69.2374 54.4396 70.6918 51.7463 71.805C49.053 72.8824 46.216 73.421 43.2354 73.421ZM52.9314 55.6991C53.0032 54.7654 52.8236 53.8856 52.3927 53.0597C51.9977 52.1978 51.3513 51.5335 50.4535 51.0666C49.5558 50.5639 48.4066 50.3125 47.0061 50.3125C45.0669 50.3125 43.3611 50.7973 41.8888 51.7669C40.4164 52.7365 39.357 54.0472 38.7106 55.6991H52.9314Z" fill="#0A0A0A"/>
<path d="M68.3956 59.6852C69.006 56.3814 70.1372 53.4726 71.7891 50.9589C73.441 48.4451 75.3442 46.5239 77.4988 45.1952C79.6534 43.8665 81.826 43.2022 84.0166 43.2022C86.0994 43.2022 87.8231 43.7049 89.1877 44.7104C90.5882 45.7159 91.5399 47.2421 92.0426 49.289C92.5454 51.3359 92.5094 53.8677 91.9349 56.8841H82.1852C82.5443 54.945 82.4365 53.4188 81.862 52.3055C81.2874 51.1923 80.2999 50.6357 78.8993 50.6357C77.7143 50.6357 76.5831 50.9948 75.5058 51.713C74.4644 52.4312 73.5486 53.4726 72.7586 54.8372C72.0045 56.2018 71.4659 57.8178 71.1427 59.6852H68.3956ZM63.9766 43.8044H73.7749L69.1497 72.3976H59.3999L63.9766 43.8044Z" fill="#0A0A0A"/>
<path d="M97.3841 59.6852C97.9946 56.3814 99.1256 53.4726 100.778 50.9589C102.429 48.4451 104.332 46.5239 106.487 45.1952C108.642 43.8665 110.814 43.2022 113.005 43.2022C115.088 43.2022 116.811 43.7049 118.176 44.7104C119.576 45.7159 120.528 47.2421 121.031 49.289C121.533 51.3359 121.498 53.8677 120.923 56.8841H111.173C111.532 54.945 111.425 53.4188 110.85 52.3055C110.276 51.1923 109.288 50.6357 107.888 50.6357C106.703 50.6357 105.571 50.9948 104.494 51.713C103.453 52.4312 102.537 53.4726 101.747 54.8372C100.993 56.2018 100.454 57.8178 100.131 59.6852H97.3841ZM92.7951 43.8044H102.593L98.1383 72.3976H88.3885L92.7951 43.8044Z" fill="#0A0A0A"/>
<path d="M130.942 73.7757C127.71 73.7757 124.909 73.1114 122.539 71.7827C120.169 70.4181 118.445 68.5866 117.368 66.2883C116.291 63.9541 115.986 61.4045 116.452 58.6394C116.919 55.8383 118.086 53.2887 119.954 50.9904C121.821 48.6921 124.155 46.8786 126.956 45.5499C129.757 44.2212 132.792 43.5569 136.06 43.5569C140.883 43.5569 149.11 46.3985 147.102 41.2562C143.736 32.6332 143.175 33.1943 152.433 42.4525C158.972 48.9914 151.119 49.3492 149.742 50.9904C150.783 53.2528 151.07 55.7845 150.604 58.5855C150.137 61.3865 148.97 63.9541 147.102 66.2883C145.235 68.5866 142.901 70.4181 140.1 71.7827C137.299 73.1114 134.246 73.7757 130.942 73.7757ZM132.02 66.3422C133.528 66.3422 134.928 66.001 136.221 65.3187C137.55 64.6364 138.645 63.7207 139.507 62.5716C140.405 61.3865 140.961 60.0758 141.177 58.6394C141.464 57.167 141.392 55.8563 140.961 54.7071C140.566 53.5221 139.848 52.6064 138.807 51.96C137.765 51.2777 136.473 50.9365 134.928 50.9365C133.42 50.9365 132.002 51.2777 130.673 51.96C129.38 52.6423 128.285 53.576 127.387 54.761C126.525 55.9101 125.951 57.185 125.663 58.5855C125.412 60.0219 125.502 61.3327 125.933 62.5177C126.364 63.7028 127.1 64.6364 128.141 65.3187C129.219 66.001 130.511 66.3422 132.02 66.3422Z" fill="#0A0A0A"/>
<path d="M35.8591 18.6915H29.6826L30.5472 13.4126H36.667L38.1753 3.98608H44.5853L43.0771 13.4126H52.773L51.965 18.6915H42.2691L38.6601 41.5845H32.25L35.8591 18.6915Z" fill="url(#paint0_linear_185_1502)"/>
<path d="M51.9864 13.4126H58.2349L53.8179 41.5845H47.5694L51.9864 13.4126ZM55.9187 8.94175C54.985 8.94175 54.1411 8.74424 53.387 8.34922C52.6687 7.9183 52.1121 7.37964 51.7171 6.73325C51.358 6.05094 51.2503 5.29682 51.3939 4.47088C51.5016 3.68084 51.8428 2.94467 52.4174 2.26237C53.0279 1.58007 53.764 1.04141 54.6259 0.64639C55.4877 0.215463 56.3855 0 57.3192 0C58.2888 0 59.1327 0.215463 59.8509 0.64639C60.5691 1.04141 61.1077 1.58007 61.4669 2.26237C61.826 2.94467 61.9516 3.68084 61.8439 4.47088C61.7003 5.29682 61.3412 6.05094 60.7666 6.73325C60.192 7.37964 59.4738 7.9183 58.612 8.34922C57.786 8.74424 56.8882 8.94175 55.9187 8.94175Z" fill="url(#paint1_linear_185_1502)"/>
<path d="M18.5859 43.4073C13.7625 43.4073 5.79676 46.3433 7.54333 41.1066C11.2699 29.9332 10.3342 32.1776 2.21282 42.3029C-3.57318 49.5166 3.37478 51.0065 7.27288 51.2552C11.6707 51.5357 16.9026 50.9822 16.9026 50.9822L18.5859 43.4073Z" fill="#0A0A0A"/>
<path d="M83.1718 24.5716C83.5309 22.4888 83.2616 20.8189 82.3639 19.562C81.502 18.2693 80.0476 17.6229 78.0007 17.6229C76.1334 17.6229 74.3558 18.0897 72.668 19.0234C71.0161 19.9211 69.5976 21.2319 68.4126 22.9556C67.2275 24.6793 66.4016 26.6903 65.9347 28.9886L63.6724 28.1267C64.2469 25.0384 65.3781 22.2912 67.0659 19.8852C68.7896 17.4792 70.8186 15.6298 73.1528 14.337C75.5229 13.0083 77.9648 12.344 80.4786 12.344C83.9978 12.344 86.5115 13.4213 88.0198 15.576C89.528 17.7306 89.959 20.9087 89.3126 25.1102L86.727 41.5394L85.3344 49.9559L79.1623 49.3948L80.5324 41.5394L83.1718 24.5716Z" fill="#0A0A0A"/>
<path d="M62.627 13.7473H68.7677L64.3507 41.9192H58.21L62.627 13.7473Z" fill="url(#paint2_linear_185_1502)"/>
<defs>
<linearGradient id="paint0_linear_185_1502" x1="55.6099" y1="42.3633" x2="57.8543" y2="19.6386" gradientUnits="userSpaceOnUse">
<stop offset="0.0261025" stop-color="#0A0A0A" stop-opacity="0"/>
<stop offset="0.68" stop-color="#0A0A0A"/>
</linearGradient>
<linearGradient id="paint1_linear_185_1502" x1="55.6099" y1="42.3633" x2="57.8543" y2="19.6386" gradientUnits="userSpaceOnUse">
<stop offset="0.0261025" stop-color="#0A0A0A" stop-opacity="0"/>
<stop offset="0.68" stop-color="#0A0A0A"/>
</linearGradient>
<linearGradient id="paint2_linear_185_1502" x1="63.7088" y1="27.9525" x2="63.4888" y2="41.9192" gradientUnits="userSpaceOnUse">
<stop offset="0.03" stop-color="#0A0A0A"/>
<stop offset="1" stop-color="#0A0A0A" stop-opacity="0"/>
</linearGradient>
</defs>
</svg>
